<svg xmlns="http://www.w3.org/2000/svg">
    <symbol id="share-icon" width="17" height="21" viewBox="0 0 17 21">
        <path fill="currentColor" d="M8.736 13.205a.71.71 0 0 0 .704-.695V3.355l-.054-1.337.597.633 1.355 1.444a.65.65 0 0 0 .482.214c.365 0 .65-.268.65-.633 0-.187-.08-.33-.213-.464L9.244.307c-.179-.179-.33-.241-.508-.241-.188 0-.34.062-.518.24L5.207 3.213c-.134.134-.214.277-.214.464 0 .365.267.633.641.633a.67.67 0 0 0 .49-.214L7.48 2.651l.597-.633-.054 1.337v9.155c0 .374.33.695.714.695m-5.117 6.98h10.224c1.863 0 2.8-.927 2.8-2.763V8.525c0-1.836-.937-2.763-2.8-2.763h-2.487v1.435h2.46c.883 0 1.391.481 1.391 1.408v8.736c0 .927-.508 1.409-1.39 1.409H3.637c-.892 0-1.382-.482-1.382-1.409V8.605c0-.927.49-1.408 1.382-1.408h2.469V5.762H3.619c-1.863 0-2.8.927-2.8 2.763v8.897c0 1.836.937 2.763 2.8 2.763"/>
    </symbol>
</svg>