<svg width="358" height="180" viewBox="0 0 358 180" fill="none" xmlns="http://www.w3.org/2000/svg">
<path fill-rule="evenodd" clip-rule="evenodd" d="M358 0H0V180H358V0ZM9.7439 112.736C8 116.159 8 120.639 8 129.6V144.4C8 153.361 8 157.841 9.7439 161.264C11.2779 164.274 13.7256 166.722 16.7362 168.256C20.1587 170 24.6392 170 33.6 170H324.4C333.361 170 337.841 170 341.264 168.256C344.274 166.722 346.722 164.274 348.256 161.264C350 157.841 350 153.361 350 144.4V129.6C350 120.639 350 116.159 348.256 112.736C346.722 109.726 344.274 107.278 341.264 105.744C337.841 104 333.361 104 324.4 104H33.6C24.6392 104 20.1587 104 16.7362 105.744C13.7256 107.278 11.2779 109.726 9.7439 112.736Z" fill="black"/>
</svg>
